<svg version="1.1" id="Layer_1" xmlns="http://www.w3.org/2000/svg" xmlns:xlink="http://www.w3.org/1999/xlink" x="0px" y="0px"
	 width="100%" viewBox="0 0 1024 1024" enable-background="new 0 0 1024 1024" xml:space="preserve">
<path fill="#000000" opacity="1.000000" stroke="none" 
	d="
M619.785339,158.187561 
	C635.758057,171.917511 643.831848,189.347748 646.312500,209.610260 
	C646.746338,213.153366 647.627197,215.251358 651.926758,214.006729 
	C654.079102,213.383667 656.591553,213.579132 658.872070,213.898026 
	C668.462585,215.239151 672.439575,220.341034 672.299500,231.459610 
	C672.244019,235.866058 672.634094,237.869843 678.170288,239.246643 
	C687.600769,241.591873 696.364990,246.655930 702.730713,254.516663 
	C705.899414,258.429596 707.574036,263.134644 707.388245,268.437012 
	C707.160767,274.928864 707.324402,281.434387 707.317566,287.934021 
	C707.303711,301.090454 701.201477,310.322449 688.895935,315.369232 
	C683.879822,317.426483 680.330811,322.194550 674.433594,322.724701 
	C672.744568,322.876526 672.795227,325.438660 672.484558,327.009003 
	C670.043152,339.350708 664.106873,344.266693 651.616272,343.169067 
	C647.240540,342.784576 646.091980,344.342926 644.832581,348.068237 
	C636.217468,373.551392 619.970032,391.130493 592.710938,396.545441 
	C581.884094,398.696167 570.827393,398.274139 559.836487,398.261566 
	C552.090698,398.252716 552.090698,398.261047 553.144775,405.861145 
	C555.130310,420.177216 555.132568,420.114075 569.711121,420.652496 
	C590.367126,421.415253 610.891968,423.445312 631.141113,427.713684 
	C634.698792,428.463623 638.151978,429.801819 641.574829,431.078979 
	C648.109924,433.517365 652.408264,438.053741 654.020874,444.957825 
	C654.397339,446.569641 654.676025,448.016602 656.773376,448.626617 
	C666.998413,451.600647 666.975342,451.670349 668.147888,462.465637 
	C668.176331,462.727173 668.460449,462.960876 668.892822,463.607971 
	C671.113220,460.130249 673.308167,456.847778 676.423828,454.319214 
	C695.262695,439.030243 723.410889,447.613647 731.221924,471.108917 
	C734.721924,481.636627 735.342041,492.658875 736.172302,503.583282 
	C737.760681,524.482849 740.655029,545.270081 741.489868,566.235291 
	C741.566101,568.149109 742.367920,570.163086 743.280945,571.894165 
	C751.005127,586.538391 752.726685,602.208557 751.319458,618.396606 
	C750.483582,628.012329 746.251831,635.956360 738.547729,641.793884 
	C736.121948,643.631897 734.960266,645.572083 735.401794,648.518738 
	C735.450745,648.845581 735.455566,649.188110 735.421082,649.517090 
	C734.455566,658.715698 735.469055,666.422302 742.902405,673.967957 
	C751.295715,682.488098 751.017273,694.672302 748.789917,706.152344 
	C747.778809,711.363953 746.607910,716.616211 744.202087,721.418457 
	C740.835571,728.138489 737.642761,729.188232 730.273865,728.660828 
	C725.488159,728.318298 720.592773,729.548279 715.673889,729.766235 
	C708.609558,730.079224 703.241028,728.304321 699.299561,722.552246 
	C695.268188,716.668945 696.970764,711.199219 700.769104,705.932495 
	C701.720886,704.612793 702.471863,703.148193 703.143982,701.249268 
	C700.239624,705.297363 696.708130,704.552368 693.244324,702.925171 
	C689.372925,701.106628 686.769104,698.091797 686.713745,693.631287 
	C686.565186,681.670349 692.622070,673.084595 702.271729,666.928101 
	C705.385681,664.941467 706.672485,663.299561 706.052063,659.433777 
	C705.351196,655.067139 707.150146,649.870117 705.391541,646.226685 
	C703.729980,642.784241 698.332031,641.674133 695.178467,638.632263 
	C685.336060,629.138428 681.750061,616.953430 680.796265,603.916199 
	C680.030273,593.445862 680.498169,583.175171 685.474548,573.227539 
	C688.133179,567.912903 685.049500,561.474121 684.375366,555.580994 
	C682.693665,540.881897 680.599976,526.230469 678.809082,511.543152 
	C677.904724,504.126526 677.531860,503.518707 669.197266,500.946930 
	C669.788513,508.024994 665.414429,511.166809 659.571716,513.082703 
	C655.916016,514.281372 657.134888,517.467712 657.133789,519.890991 
	C657.120361,550.388733 657.219238,580.886536 657.289246,611.384277 
	C657.296509,614.548279 657.086609,617.661377 656.501587,620.809387 
	C653.674927,636.021423 645.513245,647.384460 632.197754,655.092224 
	C621.620911,661.214600 610.311829,665.629517 598.666809,669.247559 
	C596.802246,669.826843 594.736755,670.011230 592.900574,671.736511 
	C609.757324,685.755798 610.836853,702.437744 600.412720,721.203125 
	C619.369141,723.968933 622.859314,738.203247 625.177673,753.216614 
	C628.170471,772.598083 631.395081,791.954041 633.842712,811.406189 
	C635.876404,827.569641 637.702026,843.796387 638.223145,860.099670 
	C638.363342,864.488220 639.761963,865.706848 644.061951,865.787537 
	C686.763855,866.588989 729.144775,870.460999 770.893311,879.876892 
	C773.218323,880.401245 775.955017,880.231018 777.671448,882.567627 
	C776.427063,884.822083 774.497742,883.963196 772.796631,883.700439 
	C741.357605,878.844238 709.739685,875.785706 677.975708,874.156189 
	C667.004578,873.593384 656.037231,872.953918 645.070068,872.316162 
	C642.024841,872.139038 639.953369,872.460266 638.854919,876.244263 
	C637.315369,881.548096 632.778198,884.094788 627.380249,884.364014 
	C598.571899,885.800537 569.757263,885.521973 540.949402,884.301453 
	C534.449585,884.026184 529.637756,879.242188 529.746887,872.601440 
	C530.015076,856.282532 530.471008,839.961914 531.185852,823.656616 
	C531.783447,810.027466 532.774414,796.413391 533.740112,782.803223 
	C534.646362,770.030884 534.870117,757.206909 536.605896,744.495483 
	C537.500488,737.944397 540.223938,732.304871 545.485901,728.274780 
	C548.403015,726.040527 548.484192,724.264709 546.558167,721.293701 
	C541.593994,713.636169 538.189453,705.413086 538.669312,695.976196 
	C539.043823,688.610962 541.771362,682.130737 546.340210,675.622131 
	C523.301819,675.622131 500.966736,675.622131 478.077789,675.622131 
	C489.397614,692.751099 487.654816,709.068481 475.324127,724.753113 
	C476.416046,725.621094 477.136993,726.271484 477.931610,726.813965 
	C486.587494,732.723755 490.712128,741.118347 491.045776,751.389404 
	C492.159424,785.668274 495.645172,819.844666 495.421021,854.183167 
	C495.384155,859.837585 496.085144,865.494507 496.124451,871.152466 
	C496.175629,878.520386 491.242828,883.905273 483.845581,884.284302 
	C454.378113,885.794495 424.901520,885.685913 395.432526,884.261841 
	C390.556274,884.026184 387.154297,881.173767 385.946808,876.660950 
	C384.930786,872.863831 382.979919,872.097351 379.492126,872.376221 
	C356.601532,874.206726 333.626404,874.873962 310.779297,877.312561 
	C295.728241,878.919067 280.635162,880.190247 265.699677,882.750122 
	C262.924286,883.225891 260.172913,883.774414 257.286133,882.916870 
	C257.600800,880.502625 259.656616,880.754333 261.064545,880.374023 
	C276.194794,876.286255 291.646729,873.862671 307.144501,871.737976 
	C331.746552,868.365112 356.477936,866.509521 381.295105,865.826843 
	C384.467438,865.739563 385.563263,864.481445 385.763458,861.324524 
	C387.701263,830.769104 391.968353,800.483704 396.466217,770.223572 
	C397.736694,761.676208 398.774323,753.101624 400.442871,744.609985 
	C402.801453,732.606628 408.787201,724.063477 421.426727,721.445496 
	C421.893402,721.348816 422.316681,721.014832 422.741486,720.760315 
	C422.872986,720.681519 422.942566,720.499390 423.262665,720.058411 
	C413.975403,701.311279 416.867737,684.871460 434.138306,671.645142 
	C432.338898,669.339661 429.893066,669.134766 427.806793,668.438843 
	C414.800385,664.100098 402.165039,658.997559 390.870544,651.046387 
	C376.850677,641.176575 369.425232,628.135986 369.525543,610.500366 
	C369.699829,579.858154 369.051636,549.211731 368.880066,518.566345 
	C368.860870,515.133301 368.016266,513.122986 364.524384,511.856201 
	C358.414154,509.639526 357.533905,504.050781 357.522522,498.224640 
	C350.918945,500.084778 346.856079,502.955078 345.852112,510.139923 
	C343.944031,523.795471 340.971741,537.301025 338.509155,550.881165 
	C337.883392,554.332153 339.573608,557.398438 340.596313,560.531433 
	C346.337158,578.118042 339.411957,604.274536 326.172760,614.650818 
	C324.867554,615.673767 323.471436,616.606567 322.027985,617.422913 
	C316.245667,620.693054 314.604034,624.656189 316.204102,631.168701 
	C316.627258,632.891113 317.739655,633.637329 319.135437,634.259583 
	C327.757446,638.103394 332.784637,645.198242 336.385651,653.509399 
	C339.486298,660.665771 338.223145,666.295044 332.786591,670.489624 
	C328.057587,674.138306 325.572998,673.748108 318.183899,668.152039 
	C317.629578,671.081909 319.396729,672.704956 321.249756,674.487610 
	C327.342316,680.348572 327.605835,688.649170 322.305756,694.636230 
	C319.446198,697.866394 316.038025,698.947327 312.003601,698.160828 
	C309.536011,697.679749 307.035431,697.706055 304.601807,697.350281 
	C300.121918,696.695496 295.924744,696.796631 291.469086,698.027283 
	C287.365112,699.160767 283.264252,697.347107 280.987061,693.727661 
	C272.648132,680.473755 269.408234,666.199768 273.953827,650.827148 
	C275.801361,644.579285 279.706238,639.522705 285.015381,635.780579 
	C287.267609,634.192993 287.942749,632.429932 287.668884,629.898254 
	C287.310913,626.589294 287.020020,623.269226 286.839905,619.946350 
	C286.737488,618.057373 285.710083,616.871826 284.320648,615.870117 
	C270.278168,605.746155 269.008118,591.282349 271.249512,575.968872 
	C272.858887,564.973633 275.308167,554.263367 280.510529,544.057373 
	C284.067139,537.080078 283.360565,528.485046 284.582092,520.621216 
	C286.749451,506.668732 288.169769,492.594940 290.543304,478.681213 
	C293.231354,462.924194 301.974091,451.597870 317.818268,447.530701 
	C333.163818,443.591492 345.573944,449.225250 355.115112,461.593079 
	C355.618866,462.246094 356.156067,462.873291 357.033905,463.948914 
	C357.626953,461.798706 358.219574,460.015411 358.602814,458.188171 
	C359.544373,453.699127 362.271240,451.215302 366.791229,450.726990 
	C368.502380,450.542114 370.247040,450.426514 370.832703,448.457886 
	C375.559967,432.567169 388.951385,429.284027 402.679993,426.841064 
	C426.318024,422.634705 450.185059,420.571350 474.182861,420.014191 
	C481.409760,419.846405 482.893677,418.460754 482.405762,411.024048 
	C482.129639,406.815491 484.411072,402.935181 483.614594,398.711090 
	C481.524292,397.492126 479.319855,398.039062 477.208954,398.078430 
	C464.205841,398.321045 451.166656,398.587250 438.572052,394.703949 
	C415.165863,387.487091 400.713959,371.356445 393.642151,348.317261 
	C392.388367,344.232544 391.326660,342.312469 386.304688,343.513519 
	C376.520752,345.853485 365.053955,338.621246 362.776398,328.765442 
	C361.731812,324.244873 359.543457,321.923279 355.445679,320.448792 
	C351.066467,318.873047 346.721069,317.096710 342.586121,314.970093 
	C332.872925,309.974487 327.664856,299.512207 329.207703,288.674469 
	C330.295166,281.035370 329.334015,273.371124 329.523712,265.719666 
	C329.743683,256.848328 334.184204,250.637085 341.465363,246.209305 
	C346.025299,243.436371 350.807037,241.035995 356.034821,239.750809 
	C359.161774,238.982071 360.509064,237.369049 360.932495,233.933655 
	C362.757294,219.128235 371.770111,212.310364 386.547058,214.538223 
	C391.819702,215.333176 392.272888,212.349625 392.690369,208.555206 
	C394.646881,190.772171 401.272247,175.154083 414.115326,162.383087 
	C428.358887,148.219467 445.534485,140.696793 465.523804,139.934860 
	C501.330444,138.570007 537.160339,138.038788 572.958252,139.858856 
	C590.295593,140.740341 606.338440,145.908264 619.785339,158.187561 
M376.056732,548.500000 
	C376.108002,569.659851 376.140625,590.819702 376.235565,611.979370 
	C376.246704,614.462036 376.375427,616.985657 376.833832,619.417847 
	C379.238037,632.173096 387.315430,641.031860 397.982635,647.171387 
	C420.608856,660.193848 444.691345,668.587158 471.319366,668.148010 
	C485.301880,667.917419 499.296326,668.535522 513.285767,668.560791 
	C525.093689,668.582153 536.945129,667.598267 548.700439,668.316528 
	C566.943420,669.431274 584.524231,667.588440 601.602722,660.854065 
	C612.599487,656.517761 623.984558,653.028137 633.546936,645.758606 
	C642.365662,639.054321 648.463562,630.436401 649.629944,619.188416 
	C650.418457,611.585388 650.630432,603.891785 650.603577,596.240417 
	C650.512939,570.432190 650.236816,544.624329 649.961609,518.817078 
	C649.721924,496.344482 650.309265,473.851135 647.835510,451.438110 
	C646.722046,441.350311 644.054016,437.970520 633.970093,435.370178 
	C612.890259,429.934296 591.263550,427.971832 569.695251,427.586273 
	C521.262512,426.720520 472.766144,425.106628 424.435638,430.345520 
	C412.688538,431.618896 401.041931,433.508728 389.711273,437.040436 
	C384.044617,438.806671 380.289062,442.373444 378.228729,447.935822 
	C375.695129,454.776001 375.147125,461.838348 375.236847,469.051208 
	C375.562195,495.200195 375.794006,521.350281 376.056732,548.500000 
M640.645569,214.790558 
	C640.308105,212.653168 639.979492,210.514328 639.631836,208.378601 
	C635.248169,181.449402 620.833984,162.236450 595.607605,151.474854 
	C583.975769,146.512741 571.483459,146.780930 559.226379,146.465363 
	C527.921326,145.659348 496.618896,146.176147 465.314087,147.219803 
	C438.434326,148.115936 414.465820,164.341965 404.302124,189.192413 
	C398.322723,203.812286 396.778198,219.291138 396.621155,234.709656 
	C396.293976,266.831848 395.250854,298.972961 397.212219,331.096161 
	C399.273224,364.850433 424.931335,390.238586 458.675476,390.601898 
	C498.480957,391.030426 538.294434,390.880280 578.103699,390.745056 
	C613.542297,390.624695 634.809265,367.634399 640.746216,336.280762 
	C643.147583,323.598999 642.860168,310.750519 642.749573,297.951294 
	C642.512512,270.515930 644.810486,243.010559 640.645569,214.790558 
M449.603394,735.375366 
	C443.361969,735.598877 437.375397,733.950256 432.766113,730.083435 
	C426.455231,724.789185 421.216553,726.920593 415.661621,730.707336 
	C410.811523,734.013611 408.229004,738.875916 407.311096,744.417480 
	C405.030090,758.188293 403.256409,772.042969 400.985718,785.815613 
	C396.545471,812.747498 394.183380,839.917236 391.394836,867.039429 
	C391.208588,868.851013 391.215027,870.719849 391.428711,872.526978 
	C391.817139,875.811096 393.959381,876.817261 397.082428,876.761108 
	C400.408356,876.701294 400.869781,874.657043 400.791046,872.095337 
	C400.635956,867.047241 401.715912,862.165100 402.819366,857.302612 
	C408.950439,830.286194 439.241180,817.931763 462.086029,833.442505 
	C475.008667,842.216431 479.492432,855.600098 480.211548,870.604492 
	C480.330597,873.088074 479.527100,876.486145 483.789062,876.331787 
	C487.483185,876.198059 489.762878,874.324402 489.607666,870.363098 
	C489.431793,865.873962 488.906219,861.389404 488.915527,856.903687 
	C488.987122,822.414612 485.785400,788.064514 484.612579,753.629089 
	C484.308319,744.695129 481.307404,737.049622 473.569092,731.800842 
	C471.125702,730.143494 468.784882,729.589478 466.203888,731.412720 
	C461.499725,734.735779 456.205719,735.791626 449.603394,735.375366 
M597.069702,727.254028 
	C596.445007,727.471497 595.710449,727.545471 595.211670,727.927429 
	C582.957275,737.311890 570.187561,738.825378 556.732788,730.553406 
	C555.132935,729.569824 553.496582,729.609619 552.139282,730.935120 
	C548.208496,734.774048 544.109741,738.575867 543.259460,744.401184 
	C541.358887,757.422180 541.244934,770.587158 540.334900,783.685425 
	C539.158447,800.616333 538.347778,817.574646 537.549316,834.529175 
	C536.977722,846.666748 536.678223,858.817200 536.273865,870.962463 
	C536.199524,873.194336 536.476990,875.289124 538.639648,876.632385 
	C542.428528,878.985901 545.413452,877.242493 545.734924,871.995300 
	C546.352600,861.912476 547.759827,852.105164 553.629944,843.517700 
	C561.223877,832.408325 571.630859,826.059082 585.226318,826.845642 
	C598.541016,827.615906 608.968262,833.939514 615.588318,845.828186 
	C620.139465,854.001526 621.813354,862.947449 622.396851,872.163940 
	C622.554810,874.658752 622.293579,877.254944 626.329041,876.848755 
	C631.556519,876.322693 633.009521,875.107910 632.660706,869.610046 
	C632.039551,859.818787 631.402588,850.020020 630.389709,840.264038 
	C628.296387,820.100647 625.903259,799.967773 622.630737,779.955322 
	C620.566772,767.333557 618.668396,754.667786 616.026245,742.163208 
	C614.134827,733.211426 606.443909,727.415405 597.069702,727.254028 
M713.438416,558.922791 
	C720.756714,559.459534 727.371094,562.464905 734.047485,565.490906 
	C735.035034,562.391541 734.532227,559.933960 734.308533,557.463440 
	C732.734314,540.078979 731.321411,522.678772 729.592529,505.309937 
	C728.623291,495.572723 728.360474,485.721802 725.617188,476.214722 
	C722.176392,464.290619 714.509644,456.733856 702.422424,453.837219 
	C692.210999,451.390106 680.380859,456.948486 676.039185,466.082123 
	C685.403076,472.884521 691.040955,485.521912 687.611084,495.185028 
	C684.879089,502.881683 686.154846,510.275116 686.643188,517.825256 
	C686.975281,522.960449 687.719055,528.071777 688.357239,533.183960 
	C689.708374,544.008423 691.110962,554.826538 692.603760,566.519287 
	C698.953552,561.660034 705.566711,559.709656 713.438416,558.922791 
M348.619720,465.691650 
	C347.054047,461.083313 343.420349,458.459930 339.383820,456.348969 
	C321.651764,447.075623 300.035797,459.048248 297.224792,479.557678 
	C295.081512,495.195648 292.650421,510.794830 290.593414,526.443604 
	C290.049927,530.578125 288.172424,534.750183 290.074890,539.728943 
	C305.555969,532.180603 319.466278,535.694641 332.623108,546.833130 
	C334.794556,534.157043 336.854309,522.740845 338.664276,511.285278 
	C339.453522,506.289886 341.740631,501.529785 340.059967,496.126587 
	C337.021973,486.359680 338.496277,477.399567 346.185211,470.012207 
	C347.249847,468.989319 348.486603,468.041504 348.619720,465.691650 
M742.408691,588.133362 
	C741.903320,586.377747 741.400330,584.621521 740.892212,582.866699 
	C737.392761,570.782104 728.531006,564.728516 716.796631,563.646240 
	C705.671936,562.620178 696.921631,567.795227 691.151367,577.609680 
	C685.534607,587.163025 686.692566,597.585083 687.708008,607.774963 
	C688.555786,616.281555 691.715271,624.202881 697.249329,630.990723 
	C704.846863,640.309570 716.595703,643.902222 727.659973,640.198364 
	C738.016968,636.731323 744.308594,627.413330 744.746887,615.189392 
	C745.063965,606.345276 744.477966,597.598572 742.408691,588.133362 
M277.257294,589.261047 
	C277.873016,602.388062 284.928314,610.672302 298.406830,614.094482 
	C310.275146,617.107788 322.604980,612.188049 328.580566,601.943176 
	C333.115387,594.168457 334.865753,585.563049 335.672333,576.733093 
	C336.696655,565.519409 333.979156,555.658203 325.194244,547.955811 
	C311.359589,535.826111 285.373810,537.189453 280.888702,561.253235 
	C279.215668,570.229492 277.150391,579.137573 277.257294,589.261047 
M387.053040,335.892242 
	C390.197357,335.787231 390.856171,333.800140 390.724457,331.134186 
	C390.412231,324.814850 389.893463,318.493408 389.895050,312.172913 
	C389.902191,283.510712 390.060516,254.848480 390.165497,226.186264 
	C390.171356,224.588242 390.776154,222.872665 388.380035,222.187561 
	C379.032837,219.514984 367.933167,222.571808 368.024078,234.750275 
	C368.239197,263.578064 368.186707,292.407806 368.378174,321.235870 
	C368.399811,324.492584 368.973511,327.694061 371.019073,330.659576 
	C374.886719,336.266571 380.366455,336.358490 387.053040,335.892242 
M470.710693,854.944519 
	C466.968536,852.171509 466.751953,847.234009 464.014618,843.905518 
	C453.377716,830.971313 432.627411,829.645264 420.070374,840.637878 
	C410.492279,849.022644 408.124603,860.118469 406.836670,871.932495 
	C406.400299,875.935059 407.816956,876.897522 411.384583,876.925171 
	C424.030640,877.023132 436.687744,877.696777 449.315857,877.320557 
	C456.302856,877.112427 463.263794,877.819702 470.245117,877.273804 
	C474.080750,876.973877 475.073669,875.121094 474.488739,871.691101 
	C473.566986,866.286133 472.886414,860.832397 470.710693,854.944519 
M565.431763,877.122925 
	C580.386475,877.953003 595.342651,876.711975 610.292725,877.150574 
	C614.795898,877.282593 616.361389,875.462158 615.645447,871.200378 
	C614.491638,864.332703 613.803833,857.371582 610.798889,850.930237 
	C602.082214,832.245239 579.326538,827.372070 564.139282,841.228516 
	C557.081421,847.667847 554.371277,856.571045 552.566284,865.599304 
	C550.453918,876.164612 551.286804,876.962646 561.963928,877.096313 
	C562.795471,877.106689 563.627014,877.112183 565.431763,877.122925 
M554.472229,677.665161 
	C552.327515,678.810425 550.976624,680.681091 549.786682,682.720764 
	C543.316284,693.811462 544.265259,707.195374 552.715820,717.688416 
	C565.109741,733.078064 587.505493,731.927612 596.602356,714.201416 
	C600.120056,707.346680 600.871399,700.025391 599.239075,692.825378 
	C597.625793,685.709290 594.028198,678.328674 586.379761,676.944092 
	C576.168823,675.095642 565.548767,674.756470 554.472229,677.665161 
M437.725891,724.894836 
	C450.857849,731.131287 462.482361,728.753967 471.285370,718.031677 
	C480.415924,706.910461 481.296936,692.200012 473.540924,681.550964 
	C471.032318,678.106689 467.972900,676.025696 463.504028,676.135254 
	C456.855682,676.298340 450.197327,676.092468 443.551392,676.302368 
	C438.651001,676.457092 434.710022,678.625854 431.683716,682.640076 
	C421.034821,696.765259 423.063904,712.774292 437.725891,724.894836 
M665.807800,263.500031 
	C665.849731,253.687103 665.571167,243.859451 666.021362,234.065292 
	C666.496338,223.733704 662.271484,219.645157 651.974915,221.180023 
	C649.206909,221.592651 648.490234,222.801590 648.596375,225.499741 
	C649.668823,252.762100 649.785645,280.023193 648.474670,307.288666 
	C648.091492,315.257446 648.435486,323.258789 648.214111,331.238770 
	C648.108826,335.035614 649.761841,336.135620 653.304688,336.066895 
	C662.790466,335.882874 665.665527,333.062134 665.689392,323.388580 
	C665.737793,303.759094 665.768127,284.129517 665.807800,263.500031 
M311.751526,685.604858 
	C313.050842,687.420776 311.791412,689.435852 312.070221,691.315308 
	C317.135223,691.557739 319.034912,689.850647 319.048706,685.361084 
	C319.057098,682.635254 317.578522,680.687012 316.030853,678.701416 
	C312.240540,673.838867 310.569885,668.414185 312.263397,662.338257 
	C313.034760,659.570862 312.801575,655.343933 316.051392,654.833618 
	C319.742554,654.254089 320.750122,658.396912 322.049377,661.179260 
	C323.352448,663.969849 325.220703,665.740417 328.274200,664.428223 
	C331.274780,663.138733 332.162537,660.572998 331.057495,657.374512 
	C328.928802,651.213257 325.191132,646.128601 320.161804,642.153259 
	C305.163086,630.297546 283.271576,638.386169 279.880127,656.988220 
	C277.931519,667.676514 279.991547,677.825684 284.645966,687.507324 
	C285.874115,690.062073 287.812622,691.723694 291.118256,691.238159 
	C292.570862,687.519409 289.838226,684.534485 289.349121,681.206787 
	C288.854919,677.844543 288.271118,674.601196 289.420624,670.421204 
	C294.211731,677.705444 294.173584,687.844421 305.345917,689.305847 
	C299.367432,681.054504 301.573578,673.509888 305.914246,666.037659 
	C306.315857,672.821167 307.915710,679.172546 311.751526,685.604858 
M725.671387,669.457886 
	C724.009338,669.354492 722.346130,669.266907 720.685425,669.145020 
	C705.315613,668.016724 698.848877,676.008240 692.986938,689.514832 
	C691.737671,692.393372 692.664124,695.031372 695.267761,696.388550 
	C698.189575,697.911560 700.342102,696.221558 701.688721,693.490662 
	C702.793396,691.250610 703.679077,688.875916 705.005310,686.777954 
	C707.061584,683.525269 710.512817,683.513489 711.952209,686.886841 
	C712.984131,689.305115 714.755676,690.981140 716.247620,692.941223 
	C721.127136,699.351624 721.593201,703.935120 717.486145,710.867920 
	C715.319824,714.524658 712.697937,717.911438 710.162170,721.593628 
	C714.041992,723.385315 716.704346,723.164124 719.162842,719.330322 
	C723.083008,713.217285 725.808594,706.497498 729.585815,699.250427 
	C731.829346,708.024353 726.482239,714.278259 724.883545,721.981506 
	C732.251770,719.354919 731.760071,711.579895 736.228821,707.152283 
	C739.126343,712.484985 735.072449,716.581543 735.131653,721.245728 
	C737.471985,720.073975 738.467224,718.092163 739.152954,716.117981 
	C742.362549,706.877502 744.060791,697.401733 741.905762,687.681702 
	C739.989075,679.036682 735.407593,672.428162 725.671387,669.457886 
M347.606842,251.159088 
	C339.427582,254.290298 335.810181,260.212219 336.113708,268.968628 
	C336.407532,277.443939 336.242462,285.936005 336.229736,294.420624 
	C336.225922,296.975952 336.651398,299.360199 338.089172,301.535370 
	C343.476776,309.686401 352.453705,311.396332 360.548584,315.315521 
	C360.548584,291.489380 360.548584,268.740692 360.548584,245.323654 
	C355.826538,247.459045 352.059296,249.162643 347.606842,251.159088 
M684.223267,264.511383 
	C684.223267,279.220337 684.223267,293.929321 684.223267,309.137970 
	C692.414368,306.604523 698.121948,302.517120 699.618225,294.390106 
	C701.437378,284.509277 701.285095,274.514954 699.868530,264.618347 
	C698.852417,257.519073 692.200684,251.952789 684.680481,251.163559 
	C683.547974,255.239227 684.393921,259.404480 684.223267,264.511383 
M522.499939,419.620819 
	C531.055908,419.620819 539.611877,419.620819 548.616577,419.620819 
	C548.044739,415.693085 548.234375,412.569824 543.965881,412.253845 
	C527.212952,411.013763 510.465118,410.845245 493.694672,412.036774 
	C488.940338,412.374573 487.788849,414.695892 488.740570,419.620575 
	C499.670868,419.620575 510.585358,419.620575 522.499939,419.620819 
M495.828369,398.245544 
	C492.406433,398.049408 490.045227,398.780212 490.125061,403.069611 
	C490.213837,407.838196 493.576965,406.865265 496.131073,406.687897 
	C510.913391,405.661530 525.681946,405.308044 540.467896,406.600098 
	C543.104004,406.830444 545.914551,407.211212 545.918701,402.919159 
	C545.922363,399.055389 544.114563,398.229797 540.671936,398.253845 
	C526.035461,398.356049 511.397614,398.258789 495.828369,398.245544 
M678.051819,305.000275 
	C677.843506,286.564728 677.238525,268.126038 678.478027,249.701828 
	C678.580383,248.180557 678.710205,246.606674 677.118530,245.744370 
	C675.907776,245.088455 674.485779,244.907043 673.325134,245.744080 
	C671.722046,246.900162 672.237244,248.776886 672.235901,250.367676 
	C672.218018,271.473450 672.244263,292.579254 672.292297,313.684967 
	C672.295166,314.933899 671.871643,316.409943 673.394409,317.218170 
	C678.330688,315.127594 679.140747,313.204407 678.051819,305.000275 
M655.326111,467.518860 
	C655.634827,478.295349 655.936035,489.072021 656.259460,499.848083 
	C656.316345,501.747101 656.513489,503.733185 659.082153,503.654083 
	C661.226257,503.588074 661.727417,501.932068 661.728699,500.135254 
	C661.737061,487.856110 661.965027,475.568695 661.549988,463.303284 
	C661.437744,459.986145 660.523315,455.882324 655.324463,454.460602 
	C655.324463,458.962921 655.324463,462.746399 655.326111,467.518860 
M673.085327,494.370819 
	C675.326111,496.018890 677.495667,498.563995 680.577148,496.814453 
	C683.490662,495.160248 683.048889,491.952789 682.944397,489.141174 
	C682.799744,485.247986 681.724426,481.549042 679.749146,478.211456 
	C677.546570,474.489807 674.465759,471.942719 669.521240,471.815155 
	C667.443481,479.754578 667.754822,487.089172 673.085327,494.370819 
M370.600586,483.544922 
	C369.265961,474.958160 371.194611,466.228638 370.411377,457.420166 
	C365.895111,458.234039 365.356110,460.822968 365.099915,463.850006 
	C364.116455,475.469727 364.361664,487.112030 364.288391,498.749023 
	C364.282135,499.743622 364.295502,500.758301 364.479218,501.729736 
	C364.789520,503.370361 365.844788,504.466156 367.523804,504.537689 
	C369.722321,504.631378 369.643097,502.871185 369.724182,501.382507 
	C370.031403,495.741852 370.312408,490.099701 370.600586,483.544922 
M729.678223,652.596436 
	C729.497070,651.008789 730.152527,649.250671 728.637878,647.794189 
	C725.441040,647.964294 722.162415,648.236755 718.880066,648.292725 
	C712.299377,648.404968 712.298523,648.356079 712.205566,654.887207 
	C712.091431,662.905029 712.091431,662.905029 720.105591,663.045837 
	C729.046448,663.202942 729.046631,663.202942 729.659485,653.951843 
	C729.670471,653.786377 729.666748,653.620056 729.678223,652.596436 
M355.838348,469.707672 
	C348.119904,472.879730 345.378082,479.228027 344.644379,486.972534 
	C344.361847,489.954712 344.286804,493.077606 347.500732,494.075348 
	C350.485748,495.002045 353.865662,493.869629 355.074707,490.807373 
	C357.749756,484.031952 358.570740,476.948364 355.838348,469.707672 
M307.056732,621.667786 
	C302.552368,621.213135 298.048035,620.758423 293.287140,620.277832 
	C293.708893,624.559631 291.133820,628.513611 293.663666,631.628723 
	C298.486450,631.628723 302.767792,631.614685 307.048981,631.634644 
	C309.163635,631.644470 310.985291,630.856934 310.510742,628.568909 
	C310.013306,626.170471 313.035370,622.187439 307.056732,621.667786 
M713.895691,696.890808 
	C713.141052,695.115417 712.475891,693.244324 709.506348,692.946899 
	C710.271057,700.516541 707.717102,706.902344 704.109619,713.001404 
	C703.124939,714.666321 702.678894,716.466064 705.732788,717.620544 
	C710.546387,711.817871 715.773315,706.249268 713.895691,696.890808 
z"/>
<path fill="#000000" opacity="1.000000" stroke="none" 
	d="
M643.807007,137.008270 
	C648.537415,131.357483 653.923828,128.374557 661.128113,130.552933 
	C668.329468,132.730453 672.245361,137.989822 673.000854,145.090500 
	C673.742004,152.055496 670.689270,157.820206 664.511963,161.364349 
	C661.753906,162.946777 661.034485,164.959885 661.035889,167.852997 
	C661.039490,175.001129 660.966797,182.154190 660.671143,189.294769 
	C660.576355,191.584030 660.931702,195.008331 657.242920,194.800659 
	C653.796753,194.606674 654.739807,191.454361 654.718140,189.290421 
	C654.646606,182.140549 654.671997,174.989197 654.726501,167.838913 
	C654.744080,165.535782 654.371216,163.995743 651.805664,162.838776 
	C640.754028,157.854767 637.754395,148.128159 643.807007,137.008270 
M650.855347,139.257706 
	C646.683350,142.581970 646.469238,146.852890 648.328918,151.327835 
	C649.887146,155.077316 653.125549,156.792435 657.084778,156.621948 
	C661.540527,156.430084 664.366089,153.780319 665.849060,149.699661 
	C667.246399,145.854736 666.117554,142.407532 663.346069,139.735916 
	C659.786011,136.304123 655.661499,136.341934 650.855347,139.257706 
z"/>
<path fill="#000000" opacity="1.000000" stroke="none" 
	d="
M532.967285,443.865936 
	C537.279541,444.092560 541.120056,444.122253 544.912354,444.565186 
	C560.772705,446.417419 572.122803,458.993652 572.296204,474.944000 
	C572.415710,485.933319 572.395325,496.925354 572.314880,507.915314 
	C572.207092,522.628113 559.645081,535.214478 544.827881,535.296692 
	C523.513428,535.414978 502.197906,535.343140 480.882843,535.349121 
	C467.895844,535.352783 455.609924,525.451538 453.803467,512.589539 
	C451.782410,498.199585 452.055237,483.606354 454.101868,469.294739 
	C456.314972,453.819214 468.989044,444.291901 486.515411,443.904266 
	C501.827576,443.565643 517.153503,443.849945 532.967285,443.865936 
M552.727356,529.442444 
	C561.763367,524.762207 567.808655,517.923401 567.937012,507.252106 
	C568.067139,496.434387 567.983643,485.609833 567.759216,474.793152 
	C567.460022,460.371735 556.788696,449.567078 542.454834,449.241699 
	C523.661560,448.815094 504.866333,448.692169 486.064545,448.685547 
	C469.456238,448.679688 457.284180,462.829620 458.011841,477.201569 
	C458.498474,486.812714 458.342560,496.478546 457.640991,506.138184 
	C457.156860,512.804138 459.469177,518.996643 464.462372,523.754822 
	C469.707977,528.753540 475.949646,531.835815 483.323975,531.562500 
	C502.126801,530.865845 520.919128,530.788513 539.721008,531.579834 
	C543.877625,531.754700 548.006348,531.028870 552.727356,529.442444 
z"/>
<path fill="#000000" opacity="1.000000" stroke="none" 
	d="
M390.695801,480.003113 
	C391.104156,473.315125 389.607086,466.934509 392.184448,460.787537 
	C394.890198,461.900055 394.185608,463.990143 394.293304,465.672424 
	C395.879150,490.451660 395.797241,515.276978 396.382294,540.085327 
	C396.861450,560.402344 397.521393,580.712891 397.125793,601.037415 
	C397.043427,605.268494 396.690796,609.494263 396.434814,614.239868 
	C392.582977,612.586182 392.908508,609.601440 392.838165,606.933105 
	C392.478149,593.279846 392.108398,579.625977 391.893280,565.969971 
	C391.444427,537.481628 391.090576,508.991760 390.695801,480.003113 
z"/>
<path fill="#000000" opacity="1.000000" stroke="none" 
	d="
M636.016174,501.977417 
	C635.088440,536.918091 634.169617,571.363342 633.216553,605.807739 
	C633.167969,607.564880 633.495972,609.548401 631.535034,610.728516 
	C629.342224,610.375793 629.778503,608.587769 629.712891,607.231140 
	C628.425781,580.600525 629.630615,553.992798 630.493652,527.382019 
	C630.563843,525.218933 630.728333,523.050781 630.649231,520.892273 
	C629.990479,502.917450 632.461426,484.975830 631.199341,466.990540 
	C631.039124,464.707794 631.549133,462.400635 633.836609,460.432831 
	C637.551636,474.178406 635.979187,487.878723 636.016174,501.977417 
z"/>
<path fill="#000000" opacity="1.000000" stroke="none" 
	d="
M500.493103,595.462402 
	C492.484558,584.706604 494.898102,571.686218 505.599213,566.285461 
	C513.728088,562.182861 523.469177,564.605103 528.615356,572.008667 
	C533.666687,579.275818 532.438904,590.374634 525.885254,596.687622 
	C519.759094,602.589050 509.556976,602.923828 502.564941,597.434937 
	C501.914520,596.924377 501.349426,596.305054 500.493103,595.462402 
M511.982330,593.725769 
	C519.137512,593.952454 523.339966,591.124573 524.566223,585.257935 
	C525.828125,579.220703 523.361023,574.286072 518.118164,572.360596 
	C511.632233,569.978760 505.627777,572.711609 503.271851,579.117859 
	C500.870361,585.648010 503.597809,590.648071 511.982330,593.725769 
z"/>
<path fill="#000000" opacity="1.000000" stroke="none" 
	d="
M602.716248,646.914490 
	C591.177551,644.388672 584.559326,628.312195 594.370117,617.954346 
	C600.192383,611.807495 608.308411,610.678040 615.708557,615.137146 
	C621.998108,618.927002 625.007446,627.491333 622.610352,634.779114 
	C619.574646,644.008545 613.147522,648.052979 602.716248,646.914490 
M611.527161,641.360596 
	C617.299500,638.302551 619.007019,634.522583 618.274536,627.912292 
	C617.714600,622.858704 615.537537,619.380981 610.428284,618.380554 
	C604.337219,617.187866 599.613464,619.422791 596.666931,624.550476 
	C599.580261,626.401306 606.015686,624.022644 605.039734,630.344727 
	C604.252136,635.446350 600.346191,631.231140 597.897827,631.484009 
	C596.945923,632.858215 595.525696,634.032166 596.917847,635.938171 
	C599.924805,635.385498 603.179016,633.522949 605.604614,636.801392 
	C607.341187,639.148438 603.588135,639.247375 603.422180,641.580383 
	C605.922852,641.580383 608.344666,641.580383 611.527161,641.360596 
z"/>
<path fill="#000000" opacity="1.000000" stroke="none" 
	d="
M435.854797,617.614624 
	C442.067749,616.663940 446.047607,619.982605 444.888977,624.821106 
	C444.190338,627.738647 442.562256,630.061218 439.319580,630.429565 
	C436.105621,630.794617 433.897583,629.089783 432.667419,626.258789 
	C431.106720,622.667114 432.226135,619.820496 435.854797,617.614624 
z"/>
<path fill="#000000" opacity="1.000000" stroke="none" 
	d="
M416.249023,628.942993 
	C413.006134,626.301331 411.914276,623.399719 413.948303,619.927185 
	C415.445862,617.370544 417.767792,616.263855 420.738617,616.936829 
	C424.429474,617.772888 426.813507,621.425537 425.948700,624.815063 
	C424.908417,628.892395 421.163574,630.626343 416.249023,628.942993 
z"/>
<path fill="#000000" opacity="1.000000" stroke="none" 
	d="
M550.906006,251.127136 
	C558.289673,237.178589 572.590332,230.178650 586.406372,233.477005 
	C601.997681,237.199158 613.197021,250.014694 612.839783,265.024750 
	C612.509094,278.922028 606.091675,289.709595 593.119812,295.537598 
	C581.104797,300.935669 569.353943,299.208527 559.432007,290.850159 
	C548.529846,281.665985 545.204407,269.549713 549.171692,255.678131 
	C549.581726,254.244278 550.219116,252.875397 550.906006,251.127136 
M569.728882,257.778320 
	C574.615295,257.811981 575.984131,254.839249 575.742737,250.616013 
	C575.561218,247.439468 573.451782,245.587082 570.603638,245.584335 
	C566.894836,245.580750 564.984802,248.309067 564.743225,251.774841 
	C564.542603,254.653641 565.917786,256.893311 569.728882,257.778320 
z"/>
<path fill="#000000" opacity="1.000000" stroke="none" 
	d="
M488.365845,265.959564 
	C487.673553,285.167877 473.289246,298.755280 454.550568,298.361450 
	C437.752319,298.008423 423.571625,282.837280 423.727051,265.385132 
	C423.881287,248.069260 438.799622,232.891022 455.764160,232.790009 
	C474.018616,232.681305 487.815857,246.520248 488.365845,265.959564 
M460.590820,250.625107 
	C460.025360,247.154633 457.934479,245.384003 454.472900,245.196503 
	C452.058899,245.065781 450.348297,246.098297 449.272736,248.308746 
	C447.608246,251.729660 448.882294,255.964020 452.045837,257.262421 
	C455.662323,258.746735 458.865906,256.540466 460.590820,250.625107 
z"/>
<path fill="#000000" opacity="1.000000" stroke="none" 
	d="
M533.665039,356.955383 
	C523.479065,361.177521 513.634583,361.385895 503.773041,357.210083 
	C493.193848,352.730377 487.497528,344.548004 485.603394,333.416626 
	C484.946777,329.557831 486.019379,327.960724 490.094879,329.366455 
	C508.616821,335.755127 527.186157,335.722900 545.856140,329.894287 
	C550.587708,328.417145 551.523926,329.472290 550.481812,334.482483 
	C548.414307,344.422638 543.702026,352.455933 533.665039,356.955383 
z"/>
<path fill="#000000" opacity="1.000000" stroke="none" 
	d="
M602.543701,214.312378 
	C604.984192,215.832626 606.862915,217.520233 605.255859,220.128159 
	C603.666443,222.707336 601.326660,221.715500 599.106750,220.633865 
	C586.946167,214.708527 574.569031,214.272629 562.043396,219.398346 
	C559.379517,220.488449 556.717529,221.356812 555.383362,217.892609 
	C554.052307,214.436768 557.049438,213.730133 559.316711,212.820786 
	C573.799561,207.011963 588.111145,207.339493 602.543701,214.312378 
z"/>
<path fill="#000000" opacity="1.000000" stroke="none" 
	d="
M467.113159,209.604187 
	C470.904419,210.547699 474.298737,211.331787 477.611603,212.374619 
	C480.179657,213.183014 483.153870,214.290741 481.953003,217.783203 
	C480.737640,221.317764 477.783447,220.344604 475.261383,219.257492 
	C466.037933,215.281830 456.554413,215.449570 446.934967,217.278320 
	C443.939667,217.847748 441.452789,219.605240 438.675446,220.664734 
	C436.647766,221.438248 434.207764,222.202026 433.067749,219.537888 
	C432.021698,217.093292 433.674744,215.476730 435.792999,214.428574 
	C445.578979,209.586197 455.814117,207.560364 467.113159,209.604187 
z"/>
<path fill="#000000" opacity="1.000000" stroke="none" 
	d="
M444.985138,767.918274 
	C439.847839,767.914185 435.205536,767.962708 430.565399,767.883301 
	C428.488678,767.847839 426.335236,767.380310 426.263855,764.779602 
	C426.190125,762.094421 428.291656,761.696472 430.425751,761.693115 
	C439.377319,761.678955 448.328979,761.662659 457.280365,761.702332 
	C458.958099,761.709717 460.873901,761.881531 460.937836,764.121277 
	C460.991425,765.999512 459.626923,767.132996 457.870056,767.536255 
	C453.774994,768.476135 449.609894,767.720337 444.985138,767.918274 
z"/>
<path fill="#000000" opacity="1.000000" stroke="none" 
	d="
M449.912537,746.862061 
	C452.389618,746.847595 454.388489,746.722290 456.370148,746.854736 
	C458.420776,746.991821 460.745148,747.524597 460.549438,750.065796 
	C460.380341,752.261230 458.381287,753.264893 456.174530,753.287170 
	C452.191437,753.327393 448.207520,753.317017 444.224152,753.291565 
	C440.240784,753.266052 436.256714,753.232849 432.274841,753.130249 
	C430.331268,753.080139 428.453949,752.519165 428.290985,750.236938 
	C428.115204,747.775146 430.222626,747.188171 432.009552,747.119385 
	C437.809937,746.896179 443.620270,746.929810 449.912537,746.862061 
z"/>
<path fill="#000000" opacity="1.000000" stroke="none" 
	d="
M595.245300,761.875122 
	C597.334167,762.689026 597.756104,764.016724 597.280884,765.643005 
	C596.759460,767.427368 595.122742,767.771545 593.670776,767.717896 
	C585.201355,767.404480 576.748047,767.154907 568.276245,767.897583 
	C566.106201,768.087830 563.726379,767.199524 563.880737,764.297913 
	C564.030823,761.478333 566.411682,761.635193 568.393127,761.639221 
	C577.205811,761.657288 586.018372,761.733398 595.245300,761.875122 
z"/>
<path fill="#000000" opacity="1.000000" stroke="none" 
	d="
M586.718872,746.865234 
	C589.958618,747.155457 594.192261,746.047791 594.117920,750.226562 
	C594.050659,754.007568 590.000000,753.170288 587.308228,753.215149 
	C581.176941,753.317383 575.043274,753.290771 568.910583,753.285706 
	C566.640259,753.283875 564.282959,752.983887 564.214966,750.092896 
	C564.143250,747.044128 566.700806,746.949463 568.854492,746.916382 
	C574.654297,746.827087 580.456238,746.879639 586.718872,746.865234 
z"/>
<path fill="#000000" opacity="1.000000" stroke="none" 
	d="
M721.169678,585.288208 
	C721.531067,583.186890 722.559204,582.221741 724.323792,582.437744 
	C725.950806,582.636902 726.279053,583.982971 726.500305,585.355286 
	C728.080933,595.155823 729.719421,604.947327 731.230103,614.758545 
	C731.545349,616.806335 731.242676,619.059509 728.629700,619.335754 
	C726.249756,619.587280 725.679016,617.508301 725.411072,615.670105 
	C723.954956,605.679199 722.571838,595.677551 721.169678,585.288208 
z"/>
<path fill="#000000" opacity="1.000000" stroke="none" 
	d="
M310.288086,583.161743 
	C309.625458,587.365967 309.023468,591.138245 308.355743,594.898804 
	C307.991516,596.949951 306.826416,598.420044 304.615143,597.966675 
	C302.274017,597.486694 302.922272,595.544739 303.173157,593.911438 
	C304.356079,586.210815 305.517212,578.506836 306.713562,570.808350 
	C307.006226,568.924866 307.503723,566.951538 309.993286,567.339294 
	C312.657867,567.754211 312.748718,569.835693 312.358246,571.966248 
	C311.700256,575.556274 311.002411,579.139038 310.288086,583.161743 
z"/>
<path fill="#000000" opacity="1.000000" stroke="none" 
	d="
M293.975525,576.169556 
	C294.619751,572.817810 295.254639,569.892883 295.674683,566.937439 
	C296.014343,564.547607 297.112732,563.150024 299.608459,563.621826 
	C301.945953,564.063721 302.187988,565.676025 301.705109,567.808655 
	C300.347992,573.802063 299.235504,579.850952 297.864441,585.840942 
	C297.351074,588.083740 296.609344,590.969177 293.470551,589.985657 
	C290.574402,589.078186 291.971893,586.432007 292.341858,584.408142 
	C292.819794,581.793884 293.359985,579.190918 293.975525,576.169556 
z"/>
<path fill="#000000" opacity="1.000000" stroke="none" 
	d="
M584.393127,704.254639 
	C579.470764,710.168396 569.005310,710.300903 565.513123,704.332397 
	C564.691406,702.927979 563.432434,701.377625 564.767395,699.797424 
	C566.255249,698.036255 567.736450,699.416687 569.118713,700.302979 
	C572.991821,702.786377 576.902954,702.566956 580.806152,700.401489 
	C582.265320,699.591980 583.471375,697.121582 585.382019,698.991577 
	C587.005554,700.580444 585.403259,702.356201 584.393127,704.254639 
z"/>
<path fill="#000000" opacity="1.000000" stroke="none" 
	d="
M458.122375,698.968567 
	C461.194519,700.528381 460.351440,702.690613 459.244873,704.556152 
	C456.473236,709.228821 451.918549,709.781494 447.076324,709.334229 
	C442.481720,708.909790 439.498718,706.293701 437.819275,702.132751 
	C437.398651,701.090515 437.078156,699.804565 438.148865,698.897095 
	C439.021606,698.157288 440.187378,698.307617 440.871338,699.060364 
	C446.572662,705.335144 452.150024,703.386963 458.122375,698.968567 
z"/>
<path fill="#000000" opacity="1.000000" stroke="none" 
	d="
M560.235352,487.000671 
	C560.483276,493.478271 560.408447,499.454865 560.778259,505.447357 
	C561.352600,514.754822 551.738953,525.802368 541.891357,525.510681 
	C523.088440,524.953796 504.256683,525.391785 485.436951,525.377258 
	C473.681885,525.368164 464.957733,517.057434 464.893311,505.222626 
	C464.834412,494.409454 465.214600,483.582520 465.777954,472.781281 
	C466.175110,465.167084 474.184082,457.955811 482.692169,457.852966 
	C502.674042,457.611389 522.665283,457.536713 542.643921,457.891907 
	C552.895752,458.074158 559.874329,465.803192 560.149048,476.010437 
	C560.243164,479.505920 560.205505,483.004974 560.235352,487.000671 
M555.696594,502.453796 
	C555.673523,493.967560 555.689087,485.481018 555.616394,476.995209 
	C555.543396,468.478973 550.331299,462.570679 541.799866,462.451935 
	C522.473511,462.182892 503.138672,462.217224 483.811523,462.462219 
	C475.754730,462.564362 470.315521,468.664612 470.264832,476.679230 
	C470.202667,486.510803 470.077820,496.344055 470.191345,506.174103 
	C470.292999,514.975464 476.568390,520.950256 485.224731,520.514709 
	C502.704590,519.635254 520.177612,520.188721 537.651367,520.575256 
	C548.766235,520.821106 555.632629,514.349060 555.696594,502.453796 
z"/>
</svg>